<svg width="700" height="152" viewBox="0 0 700 152" fill="none" xmlns="http://www.w3.org/2000/svg">
<path d="M415.929 92.8908C412.024 96.7961 412.024 103.128 415.929 107.033C419.834 110.938 426.166 110.938 430.071 107.033L415.929 92.8908ZM430.071 14.9289C426.166 11.0237 419.834 11.0237 415.929 14.9289C412.024 18.8342 412.024 25.1658 415.929 29.0711L430.071 14.9289ZM0 69.5H450V49.5H0V69.5ZM430.071 107.033L476.033 61.071L461.891 46.9289L415.929 92.8908L430.071 107.033ZM415.929 29.0711L461.891 75.033L476.033 60.8909L430.071 14.9289L415.929 29.0711Z" fill="#00462A" fill-opacity="0.5"/>
<path d="M1.0625 15.75H12.7812L19.75 45.7188H20.1562L28 15.75H37.7188L45.5938 45.8125H45.9688L52.9688 15.75H64.6875L51.5938 61H41.25L33.0312 33.125H32.7188L24.4688 61H14.1875L1.0625 15.75ZM81.0625 61.625C77.5833 61.625 74.5521 60.8958 71.9688 59.4375C69.4062 57.9792 67.4375 55.9375 66.0625 53.3125C64.6875 50.6667 64 47.6042 64 44.125C64 40.6458 64.6875 37.5938 66.0625 34.9688C67.4375 32.3229 69.4062 30.2708 71.9688 28.8125C74.5521 27.3542 77.5833 26.625 81.0625 26.625C84.5417 26.625 87.5729 27.3542 90.1562 28.8125C92.7396 30.2708 94.7188 32.3229 96.0938 34.9688C97.4688 37.5938 98.1562 40.6458 98.1562 44.125C98.1562 47.6042 97.4688 50.6667 96.0938 53.3125C94.7188 55.9375 92.7396 57.9792 90.1562 59.4375C87.5729 60.8958 84.5417 61.625 81.0625 61.625ZM81.1562 53.6875C82.4688 53.6875 83.5938 53.2812 84.5312 52.4688C85.4896 51.6562 86.1979 50.5312 86.6562 49.0938C87.1354 47.6354 87.375 45.9479 87.375 44.0312C87.375 42.1562 87.1354 40.4896 86.6562 39.0312C86.1979 37.5729 85.4896 36.4479 84.5312 35.6562C83.5938 34.8438 82.4688 34.4375 81.1562 34.4375C79.7812 34.4375 78.6146 34.8438 77.6562 35.6562C76.6979 36.4479 75.9688 37.5729 75.4688 39.0312C74.9688 40.4688 74.7188 42.1354 74.7188 44.0312C74.7188 45.9479 74.9688 47.6354 75.4688 49.0938C75.9688 50.5312 76.6979 51.6562 77.6562 52.4688C78.6146 53.2812 79.7812 53.6875 81.1562 53.6875ZM103.594 27.0625H113.781V33.1875H114.156C114.76 31.0208 115.76 29.3854 117.156 28.2812C118.552 27.1562 120.208 26.5938 122.125 26.5938C123.312 26.6146 124.312 26.7396 125.125 26.9688V36.1562C124.625 35.9896 123.969 35.8542 123.156 35.75C122.365 35.6458 121.625 35.5938 120.938 35.5938C119.646 35.5938 118.479 35.8854 117.438 36.4688C116.417 37.0521 115.604 37.8542 115 38.875C114.417 39.8958 114.125 41.0729 114.125 42.4062V61H103.594V27.0625ZM139.938 61H129.406V15.75H139.938V61ZM159.125 61.5C156.562 61.5 154.25 60.8333 152.188 59.5C150.146 58.1458 148.521 56.1667 147.312 53.5625C146.125 50.9375 145.531 47.7604 145.531 44.0312C145.531 40.2188 146.146 37 147.375 34.375C148.604 31.75 150.24 29.8021 152.281 28.5312C154.323 27.2604 156.594 26.625 159.094 26.625C160.698 26.625 162.115 26.8854 163.344 27.4062C164.594 27.9271 165.615 28.6042 166.406 29.4375C167.219 30.2708 167.885 31.2292 168.406 32.3125C168.469 32.4375 168.51 32.5312 168.531 32.5938C168.552 32.6354 168.594 32.7292 168.656 32.875H168.906V15.75H179.438V61H169.031V55.5312H168.656L168.469 55.9062C167.948 56.9896 167.271 57.9375 166.438 58.75C165.604 59.5625 164.573 60.2292 163.344 60.75C162.115 61.25 160.708 61.5 159.125 61.5ZM162.688 53.25C164.021 53.25 165.177 52.8646 166.156 52.0938C167.135 51.3229 167.875 50.25 168.375 48.875C168.896 47.5 169.167 45.875 169.188 44C169.167 42.125 168.896 40.5 168.375 39.125C167.875 37.75 167.135 36.6979 166.156 35.9688C165.198 35.2396 164.042 34.875 162.688 34.875C161.354 34.875 160.208 35.25 159.25 36C158.292 36.7292 157.552 37.7812 157.031 39.1562C156.531 40.5312 156.281 42.1458 156.281 44C156.281 45.875 156.542 47.5 157.062 48.875C157.583 50.25 158.312 51.3229 159.25 52.0938C160.208 52.8646 161.354 53.25 162.688 53.25ZM198.312 15.75H210.031L217 45.7188H217.406L225.25 15.75H234.969L242.844 45.8125H243.219L250.219 15.75H261.938L248.844 61H238.5L230.281 33.125H229.969L221.719 61H211.438L198.312 15.75ZM266.406 27.0625H276.938V61H266.406V27.0625ZM271.656 23C270.656 23 269.74 22.7708 268.906 22.3125C268.094 21.8542 267.427 21.2396 266.906 20.4688C266.406 19.6979 266.156 18.8542 266.156 17.9375C266.156 17.0208 266.406 16.1771 266.906 15.4062C267.427 14.6146 268.094 13.9896 268.906 13.5312C269.74 13.0729 270.656 12.8438 271.656 12.8438C272.635 12.8438 273.542 13.0729 274.375 13.5312C275.208 13.9896 275.875 14.6146 276.375 15.4062C276.875 16.1771 277.125 17.0208 277.125 17.9375C277.125 18.8542 276.875 19.6979 276.375 20.4688C275.875 21.2396 275.208 21.8542 274.375 22.3125C273.542 22.7708 272.635 23 271.656 23ZM296.125 61.5C293.562 61.5 291.25 60.8333 289.188 59.5C287.146 58.1458 285.521 56.1667 284.312 53.5625C283.125 50.9375 282.531 47.7604 282.531 44.0312C282.531 40.2188 283.146 37 284.375 34.375C285.604 31.75 287.24 29.8021 289.281 28.5312C291.323 27.2604 293.594 26.625 296.094 26.625C297.698 26.625 299.115 26.8854 300.344 27.4062C301.594 27.9271 302.615 28.6042 303.406 29.4375C304.219 30.2708 304.885 31.2292 305.406 32.3125C305.469 32.4375 305.51 32.5312 305.531 32.5938C305.552 32.6354 305.594 32.7292 305.656 32.875H305.906V15.75H316.438V61H306.031V55.5312H305.656L305.469 55.9062C304.948 56.9896 304.271 57.9375 303.438 58.75C302.604 59.5625 301.573 60.2292 300.344 60.75C299.115 61.25 297.708 61.5 296.125 61.5ZM299.688 53.25C301.021 53.25 302.177 52.8646 303.156 52.0938C304.135 51.3229 304.875 50.25 305.375 48.875C305.896 47.5 306.167 45.875 306.188 44C306.167 42.125 305.896 40.5 305.375 39.125C304.875 37.75 304.135 36.6979 303.156 35.9688C302.198 35.2396 301.042 34.875 299.688 34.875C298.354 34.875 297.208 35.25 296.25 36C295.292 36.7292 294.552 37.7812 294.031 39.1562C293.531 40.5312 293.281 42.1458 293.281 44C293.281 45.875 293.542 47.5 294.062 48.875C294.583 50.25 295.312 51.3229 296.25 52.0938C297.208 52.8646 298.354 53.25 299.688 53.25ZM339.062 61.625C335.542 61.625 332.49 60.9271 329.906 59.5312C327.344 58.1354 325.375 56.125 324 53.5C322.625 50.875 321.938 47.7604 321.938 44.1562C321.938 40.6979 322.625 37.6354 324 34.9688C325.396 32.3021 327.354 30.25 329.875 28.8125C332.417 27.3542 335.375 26.625 338.75 26.625C341.938 26.625 344.75 27.2917 347.188 28.625C349.646 29.9583 351.573 31.9271 352.969 34.5312C354.365 37.1146 355.062 40.2396 355.062 43.9062V46.625H325.75V40.4062H345.25C345.229 39.2188 344.948 38.1562 344.406 37.2188C343.865 36.2812 343.115 35.5521 342.156 35.0312C341.219 34.5104 340.146 34.25 338.938 34.25C337.688 34.25 336.562 34.5312 335.562 35.0938C334.562 35.6354 333.771 36.3958 333.188 37.375C332.625 38.3333 332.333 39.4062 332.312 40.5938V46.8125C332.312 48.2708 332.594 49.5417 333.156 50.625C333.74 51.6875 334.542 52.5208 335.562 53.125C336.604 53.7083 337.833 54 339.25 54C340.188 54 341.052 53.8646 341.844 53.5938C342.635 53.3229 343.302 52.9583 343.844 52.5C344.385 52.0208 344.802 51.4583 345.094 50.8125H354.938C354.5 53 353.594 54.9167 352.219 56.5625C350.844 58.1875 349.031 59.4375 346.781 60.3125C344.531 61.1875 341.958 61.625 339.062 61.625ZM3.4375 91.75H34.7812V100.438H14.0625V110.031H33.1562V118.688H14.0625V128.312H34.7812V137H3.4375V91.75ZM39 103.062H49.5938L54.2812 125.031H54.5938L59.625 103.062H69.9375L75.125 124.844H75.4062L79.9688 103.062H90.5312L81.6562 137H70.375L64.9375 116.938H64.5938L59.1562 137H47.9375L39 103.062ZM105.375 137H94.8438V91.75H105.031V109.219H105.375C106.167 107.135 107.438 105.521 109.188 104.375C110.938 103.208 113.062 102.625 115.562 102.625C117.938 102.625 120.01 103.156 121.781 104.219C123.573 105.26 124.948 106.74 125.906 108.656C126.885 110.573 127.375 112.802 127.375 115.344V137H116.844V117.375C116.844 116.104 116.625 115.01 116.188 114.094C115.75 113.177 115.104 112.479 114.25 112C113.417 111.5 112.417 111.25 111.25 111.25C110.083 111.25 109.062 111.51 108.188 112.031C107.312 112.531 106.625 113.26 106.125 114.219C105.625 115.156 105.375 116.271 105.375 117.562V137ZM153.656 122.719C153.323 122.74 153.021 122.76 152.75 122.781C152.479 122.802 152.104 122.823 151.625 122.844C149.75 122.906 148.135 123.01 146.781 123.156C145.427 123.281 144.354 123.698 143.562 124.406C142.792 125.115 142.406 126.01 142.406 127.094C142.406 127.844 142.594 128.479 142.969 129C143.344 129.521 143.854 129.927 144.5 130.219C145.167 130.49 145.938 130.615 146.812 130.594C147.979 130.615 149.052 130.385 150.031 129.906C151.031 129.427 151.812 128.75 152.375 127.875C152.938 127 153.219 126.021 153.219 124.938L153.125 113.844C153.125 113.052 152.948 112.375 152.594 111.812C152.24 111.229 151.708 110.802 151 110.531C150.292 110.24 149.458 110.094 148.5 110.094C147.104 110.094 145.979 110.396 145.125 111C144.271 111.604 143.74 112.458 143.531 113.562H133.656C133.823 111.5 134.51 109.646 135.719 108C136.927 106.333 138.625 105.021 140.812 104.062C143.021 103.104 145.656 102.625 148.719 102.625C151.573 102.625 154.125 103.062 156.375 103.938C158.646 104.792 160.427 106.083 161.719 107.812C163.01 109.521 163.667 111.573 163.688 113.969V137H153.75V132.281H153.5C152.562 134.01 151.271 135.333 149.625 136.25C147.979 137.146 145.969 137.583 143.594 137.562C141.406 137.583 139.469 137.229 137.781 136.5C136.115 135.75 134.802 134.625 133.844 133.125C132.885 131.604 132.406 129.75 132.406 127.562C132.406 124.042 133.562 121.448 135.875 119.781C138.188 118.115 141.219 117.167 144.969 116.938C146.01 116.875 147.115 116.823 148.281 116.781C149.448 116.719 150.562 116.656 151.625 116.594C152.292 116.573 152.948 116.552 153.594 116.531L153.656 122.719ZM181.531 123.219H172.656L171.688 91.75H182.531L181.531 123.219ZM177.094 137.625C176.073 137.625 175.125 137.375 174.25 136.875C173.375 136.354 172.688 135.667 172.188 134.812C171.688 133.938 171.448 132.979 171.469 131.938C171.448 130.938 171.688 130.01 172.188 129.156C172.688 128.302 173.375 127.625 174.25 127.125C175.125 126.625 176.073 126.375 177.094 126.375C178.094 126.375 179.021 126.625 179.875 127.125C180.75 127.625 181.448 128.312 181.969 129.188C182.49 130.042 182.75 130.958 182.75 131.938C182.75 132.979 182.49 133.938 181.969 134.812C181.448 135.667 180.75 136.354 179.875 136.875C179.021 137.375 178.094 137.625 177.094 137.625Z" fill="black"/>
</svg>
