<svg width="505" height="20" viewBox="0 0 505 20" fill="none" xmlns="http://www.w3.org/2000/svg">
<path d="M496.716 16.4363L503.434 9.71875L496.716 3.00124" stroke="black"/>
<path d="M491.716 16.4363L498.434 9.71875L491.716 3.00124" stroke="black"/>
<path d="M448.716 16.4363L455.434 9.71875L448.716 3.00124" stroke="black"/>
<path d="M361.75 16.1562C361.078 16.1562 360.466 16.026 359.914 15.7656C359.367 15.5052 358.93 15.1484 358.602 14.6953C358.279 14.2422 358.104 13.7292 358.078 13.1562H359.438C359.469 13.4896 359.591 13.7891 359.805 14.0547C360.018 14.3203 360.294 14.5312 360.633 14.6875C360.977 14.8438 361.349 14.9219 361.75 14.9219C362.234 14.9219 362.667 14.8125 363.047 14.5938C363.432 14.375 363.734 14.0755 363.953 13.6953C364.172 13.3151 364.281 12.8906 364.281 12.4219C364.281 11.9375 364.169 11.5026 363.945 11.1172C363.721 10.7266 363.409 10.4193 363.008 10.1953C362.607 9.97135 362.156 9.85938 361.656 9.85938C361.161 9.84896 360.737 9.92708 360.383 10.0938C360.029 10.2552 359.75 10.5156 359.547 10.875H358.188L358.984 4.6875H365.109V5.9375H360.156L359.734 9.25H359.844C360.104 9.05208 360.414 8.89323 360.773 8.77344C361.138 8.65365 361.516 8.59375 361.906 8.59375C362.615 8.59375 363.255 8.75521 363.828 9.07812C364.401 9.40104 364.849 9.85417 365.172 10.4375C365.495 11.0156 365.656 11.6667 365.656 12.3906C365.656 13.1094 365.487 13.7552 365.148 14.3281C364.81 14.901 364.344 15.349 363.75 15.6719C363.161 15.9948 362.495 16.1562 361.75 16.1562Z" fill="black"/>
<path d="M302.781 12.5312L307.875 4.6875H308.719V6.46875H308.125L304.297 12.3594V12.4531H311.188V13.6875H302.781V12.5312ZM308.266 13.3438V12.7969V4.6875H309.609V16H308.266V13.3438Z" fill="black"/>
<path d="M251.969 16.1562C251.224 16.1562 250.557 16.0312 249.969 15.7812C249.385 15.5312 248.922 15.1797 248.578 14.7266C248.234 14.2682 248.052 13.7448 248.031 13.1562H249.453C249.479 13.5104 249.604 13.8177 249.828 14.0781C250.057 14.3385 250.354 14.5417 250.719 14.6875C251.089 14.8333 251.5 14.9062 251.953 14.9062C252.448 14.9062 252.891 14.8229 253.281 14.6562C253.677 14.4896 253.984 14.2552 254.203 13.9531C254.422 13.651 254.531 13.3073 254.531 12.9219C254.526 12.5104 254.417 12.1458 254.203 11.8281C253.995 11.5052 253.682 11.2552 253.266 11.0781C252.849 10.901 252.354 10.8125 251.781 10.8125H250.859V9.57812H251.781C252.234 9.57812 252.638 9.4974 252.992 9.33594C253.352 9.17448 253.628 8.94792 253.82 8.65625C254.013 8.35938 254.109 8.02083 254.109 7.64062C254.109 7.26562 254.023 6.9349 253.852 6.64844C253.68 6.36198 253.435 6.14062 253.117 5.98438C252.799 5.82812 252.427 5.75 252 5.75C251.594 5.75521 251.214 5.83073 250.859 5.97656C250.505 6.11719 250.216 6.32292 249.992 6.59375C249.768 6.85938 249.646 7.17188 249.625 7.53125H248.266C248.286 6.94792 248.469 6.42708 248.812 5.96875C249.156 5.51042 249.609 5.15625 250.172 4.90625C250.734 4.65625 251.349 4.53125 252.016 4.53125C252.714 4.53125 253.326 4.66927 253.852 4.94531C254.378 5.22135 254.779 5.59115 255.055 6.05469C255.336 6.51823 255.474 7.02083 255.469 7.5625C255.474 7.98438 255.398 8.36979 255.242 8.71875C255.091 9.0625 254.87 9.35417 254.578 9.59375C254.286 9.83333 253.943 10.0104 253.547 10.125V10.2031C254.031 10.276 254.451 10.4349 254.805 10.6797C255.164 10.9245 255.438 11.2396 255.625 11.625C255.812 12.0104 255.906 12.4427 255.906 12.9219C255.906 13.5312 255.737 14.0833 255.398 14.5781C255.06 15.0677 254.589 15.4531 253.984 15.7344C253.385 16.0156 252.714 16.1562 251.969 16.1562Z" fill="black"/>
<path d="M193.047 14.9688L196.906 10.9062C197.411 10.3646 197.797 9.92708 198.062 9.59375C198.333 9.26042 198.539 8.94271 198.68 8.64062C198.82 8.33333 198.891 8.01042 198.891 7.67188C198.891 7.29167 198.792 6.95833 198.594 6.67188C198.396 6.38021 198.125 6.15365 197.781 5.99219C197.443 5.83073 197.062 5.75 196.641 5.75C196.198 5.75 195.81 5.83854 195.477 6.01562C195.148 6.19271 194.893 6.44271 194.711 6.76562C194.529 7.08333 194.438 7.45312 194.438 7.875H193.109C193.104 7.21875 193.255 6.63802 193.562 6.13281C193.875 5.6276 194.305 5.23438 194.852 4.95312C195.398 4.67188 196.01 4.53125 196.688 4.53125C197.359 4.53125 197.961 4.66927 198.492 4.94531C199.029 5.22135 199.448 5.59896 199.75 6.07812C200.052 6.55729 200.203 7.08854 200.203 7.67188C200.198 8.10417 200.117 8.51823 199.961 8.91406C199.81 9.30469 199.549 9.73958 199.18 10.2188C198.81 10.6979 198.286 11.2865 197.609 11.9844L195.016 14.6562V14.75H200.406V16H193.062L193.047 14.9688Z" fill="black"/>
<rect x="132" width="20" height="20" rx="10" fill="#F27367"/>
<path d="M143.062 16H141.641V6.15625H141.578L138.828 7.98438V6.5625L141.641 4.6875H143.062V16Z" fill="white"/>
<path d="M55.7175 16.4363L49 9.71875L55.7175 3.00124" stroke="black"/>
<path d="M12.7175 16.4363L6 9.71875L12.7175 3.00124" stroke="black"/>
<path d="M7.71751 16.4363L1 9.71875L7.71751 3.00124" stroke="black"/>
</svg>
